<svg width="348" height="273" viewBox="0 0 348 273" fill="none" xmlns="http://www.w3.org/2000/svg">
<g clip-path="url(#clip0_54_7)">
<path d="M106.933 152.511C106.933 135.597 121.317 95.4623 139.06 95.4623C156.803 95.4623 171.187 135.597 171.187 152.511C171.18 160.634 167.793 168.423 161.768 174.165C155.744 179.907 147.576 183.133 139.06 183.133C130.543 183.133 122.375 179.907 116.351 174.165C110.327 168.423 106.939 160.634 106.933 152.511Z" fill="#F2F2F2"/>
<path d="M139.06 227.017C139.025 227.017 138.991 227.01 138.959 226.997C138.927 226.985 138.898 226.966 138.873 226.943C138.848 226.919 138.829 226.892 138.816 226.861C138.802 226.831 138.796 226.798 138.796 226.765V121.181C138.796 121.115 138.824 121.051 138.873 121.004C138.923 120.957 138.99 120.931 139.06 120.931C139.13 120.931 139.197 120.957 139.246 121.004C139.296 121.051 139.324 121.115 139.324 121.181V226.765C139.324 226.798 139.317 226.831 139.304 226.861C139.291 226.892 139.271 226.919 139.247 226.943C139.222 226.966 139.193 226.985 139.161 226.997C139.129 227.01 139.094 227.017 139.06 227.017Z" fill="#3F3D56"/>
<path d="M139.06 141.565C139.025 141.565 138.991 141.559 138.959 141.546C138.927 141.533 138.897 141.515 138.873 141.491L126.157 129.37C126.108 129.323 126.08 129.259 126.08 129.192C126.08 129.125 126.108 129.061 126.158 129.014C126.207 128.967 126.274 128.941 126.344 128.941C126.414 128.941 126.481 128.967 126.531 129.014L139.247 141.135C139.283 141.17 139.309 141.215 139.319 141.264C139.329 141.313 139.324 141.364 139.304 141.41C139.284 141.456 139.25 141.495 139.206 141.523C139.163 141.55 139.112 141.565 139.06 141.565Z" fill="#3F3D56"/>
<path d="M139.06 162.549C139.007 162.549 138.956 162.534 138.913 162.507C138.87 162.479 138.836 162.44 138.816 162.394C138.796 162.348 138.791 162.297 138.801 162.248C138.811 162.199 138.836 162.154 138.873 162.119L160.168 141.82C160.217 141.773 160.284 141.747 160.354 141.747C160.424 141.747 160.491 141.773 160.541 141.82C160.59 141.867 160.618 141.931 160.618 141.998C160.618 142.065 160.591 142.129 160.541 142.176L139.247 162.475C139.222 162.499 139.193 162.517 139.161 162.53C139.129 162.543 139.094 162.549 139.06 162.549Z" fill="#3F3D56"/>
<path d="M52.2657 134.628C52.2657 113.655 70.1017 63.8872 92.1035 63.8872C114.105 63.8872 131.941 113.655 131.941 134.628C131.933 144.701 127.733 154.36 120.263 161.48C112.792 168.6 102.664 172.6 92.1035 172.6C81.5431 172.6 71.4147 168.6 63.9445 161.48C56.4744 154.36 52.2736 144.701 52.2657 134.628Z" fill="#E6E6E6"/>
<path d="M92.1035 227.017C92.0605 227.017 92.0179 227.009 91.9782 226.993C91.9385 226.977 91.9024 226.954 91.872 226.925C91.8415 226.896 91.8174 226.862 91.8009 226.824C91.7845 226.786 91.776 226.745 91.776 226.704V95.7793C91.7763 95.6967 91.8109 95.6175 91.8723 95.5591C91.9337 95.5008 92.0169 95.468 92.1035 95.468C92.1902 95.468 92.2733 95.5008 92.3347 95.5591C92.3961 95.6175 92.4308 95.6967 92.4311 95.7793V226.704C92.4311 226.745 92.4226 226.786 92.4061 226.824C92.3897 226.862 92.3656 226.896 92.3351 226.925C92.3047 226.954 92.2686 226.977 92.2289 226.993C92.1891 227.009 92.1465 227.017 92.1035 227.017Z" fill="#3F3D56"/>
<path d="M92.1035 121.055C92.0605 121.055 92.0179 121.047 91.9782 121.032C91.9384 121.016 91.9023 120.993 91.8719 120.964L76.1041 105.934C76.0737 105.905 76.0496 105.87 76.0332 105.832C76.0167 105.794 76.0083 105.754 76.0083 105.713C76.0083 105.63 76.0429 105.55 76.1043 105.492C76.1657 105.433 76.2491 105.4 76.3359 105.4C76.4228 105.4 76.506 105.433 76.5674 105.492L92.3352 120.522C92.381 120.566 92.4122 120.622 92.4248 120.682C92.4374 120.743 92.4309 120.806 92.4061 120.863C92.3813 120.92 92.3393 120.968 92.2855 121.003C92.2316 121.037 92.1683 121.055 92.1036 121.055H92.1035Z" fill="#3F3D56"/>
<path d="M92.1035 147.076C92.0388 147.076 91.9755 147.058 91.9216 147.023C91.8678 146.989 91.8258 146.94 91.801 146.883C91.7762 146.826 91.7697 146.763 91.7823 146.703C91.7949 146.642 91.8261 146.587 91.8719 146.543L118.278 121.372C118.339 121.313 118.423 121.28 118.509 121.28C118.596 121.28 118.68 121.313 118.741 121.371C118.802 121.43 118.837 121.509 118.837 121.592C118.837 121.675 118.803 121.755 118.741 121.813L92.3352 146.984C92.3048 147.013 92.2687 147.036 92.2289 147.052C92.1892 147.068 92.1466 147.076 92.1035 147.076Z" fill="#3F3D56"/>
<path d="M0 98.4454C0 69.2586 24.8045 0 55.4023 0C86.0002 0 110.805 69.2586 110.805 98.4454C110.805 112.461 104.968 125.903 94.5777 135.814C84.1877 145.725 70.0959 151.293 55.4023 151.293C40.7087 151.293 26.6169 145.725 16.227 135.814C5.83701 125.903 2.18952e-07 112.461 0 98.4454Z" fill="#FFDE5A"/>
<path d="M0 98.4454C0 69.2586 24.8045 0 55.4023 0C86.0002 0 110.805 69.2586 110.805 98.4454C110.805 112.461 104.968 125.903 94.5777 135.814C84.1877 145.725 70.0959 151.293 55.4023 151.293C40.7087 151.293 26.6169 145.725 16.227 135.814C5.83701 125.903 2.18952e-07 112.461 0 98.4454Z" fill="#1283C6"/>
<path d="M55.4023 227.017C55.2815 227.017 55.1656 226.971 55.0802 226.889C54.9947 226.808 54.9467 226.697 54.9467 226.582V44.3822C54.9467 44.267 54.9947 44.1564 55.0802 44.0749C55.1656 43.9934 55.2815 43.9477 55.4023 43.9477C55.5231 43.9477 55.639 43.9934 55.7244 44.0749C55.8099 44.1564 55.8579 44.267 55.8579 44.3822V226.582C55.8579 226.697 55.8099 226.808 55.7244 226.889C55.639 226.971 55.5231 227.017 55.4023 227.017Z" fill="#3F3D56"/>
<path d="M55.4023 79.5572C55.3425 79.5573 55.2832 79.5461 55.2279 79.5242C55.1726 79.5024 55.1224 79.4703 55.0802 79.4299L33.152 58.5131C33.0676 58.4314 33.0204 58.3212 33.0208 58.2065C33.0212 58.0918 33.0692 57.9818 33.1543 57.9007C33.2393 57.8196 33.3546 57.7739 33.4748 57.7735C33.5951 57.7731 33.7107 57.8181 33.7963 57.8987L55.7245 78.8154C55.7882 78.8762 55.8315 78.9536 55.8491 79.0379C55.8667 79.1222 55.8576 79.2095 55.8232 79.2889C55.7887 79.3683 55.7303 79.4362 55.6554 79.4839C55.5805 79.5317 55.4924 79.5572 55.4023 79.5572V79.5572Z" fill="#3F3D56"/>
<path d="M55.4023 115.768C55.3122 115.768 55.2241 115.743 55.1492 115.695C55.0743 115.647 55.0159 115.579 54.9815 115.5C54.947 115.421 54.938 115.333 54.9555 115.249C54.9731 115.165 55.0165 115.087 55.0802 115.026L91.8028 79.9973C91.845 79.9565 91.8953 79.9241 91.9506 79.9019C92.006 79.8797 92.0655 79.8682 92.1255 79.868C92.1856 79.8678 92.2451 79.879 92.3006 79.9008C92.3562 79.9226 92.4066 79.9547 92.4491 79.9953C92.4916 80.0358 92.5253 80.0839 92.5482 80.1369C92.5711 80.1898 92.5828 80.2466 92.5826 80.3039C92.5824 80.3612 92.5703 80.4179 92.5471 80.4707C92.5238 80.5236 92.4899 80.5715 92.4471 80.6118L55.7245 115.641C55.6822 115.681 55.632 115.713 55.5767 115.735C55.5214 115.757 55.4621 115.768 55.4023 115.768Z" fill="#3F3D56"/>
<path d="M347.544 227.34H9.06356C8.94274 227.34 8.82687 227.294 8.74143 227.213C8.656 227.131 8.608 227.021 8.608 226.905C8.608 226.79 8.656 226.679 8.74143 226.598C8.82687 226.516 8.94274 226.471 9.06356 226.471H347.544C347.665 226.471 347.781 226.516 347.867 226.598C347.952 226.679 348 226.79 348 226.905C348 227.021 347.952 227.131 347.867 227.213C347.781 227.294 347.665 227.34 347.544 227.34Z" fill="#3F3D56"/>
<path d="M320.685 192.938C320.842 192.938 320.997 192.908 321.141 192.851C321.286 192.794 321.417 192.71 321.528 192.605C321.639 192.499 321.726 192.374 321.786 192.236C321.846 192.098 321.877 191.95 321.877 191.801C321.877 191.651 321.846 191.504 321.786 191.366C321.726 191.228 321.639 191.102 321.528 190.997C321.417 190.891 321.286 190.807 321.141 190.75C320.997 190.693 320.842 190.664 320.685 190.664H309.361V186.116H320.685C321.001 186.116 321.304 185.996 321.528 185.783C321.751 185.569 321.877 185.28 321.877 184.979C321.877 184.677 321.751 184.388 321.528 184.175C321.304 183.961 321.001 183.841 320.685 183.841H224.132C223.816 183.841 223.513 183.961 223.289 184.175C223.065 184.388 222.94 184.677 222.94 184.979C222.94 185.28 223.065 185.569 223.289 185.783C223.513 185.996 223.816 186.116 224.132 186.116H235.456V190.664H224.132C223.816 190.664 223.513 190.784 223.289 190.997C223.065 191.21 222.94 191.499 222.94 191.801C222.94 192.102 223.065 192.392 223.289 192.605C223.513 192.818 223.816 192.938 224.132 192.938H235.456V197.486H224.132C223.816 197.486 223.513 197.606 223.289 197.819C223.065 198.032 222.94 198.321 222.94 198.623C222.94 198.925 223.065 199.214 223.289 199.427C223.513 199.64 223.816 199.76 224.132 199.76H235.456V204.308H225.324C224.692 204.309 224.087 204.549 223.64 204.975C223.194 205.402 222.943 205.98 222.943 206.582C222.943 207.185 223.194 207.763 223.64 208.189C224.087 208.616 224.692 208.856 225.324 208.856H234.969C234.899 209.038 234.862 209.231 234.86 209.425V225.343C234.86 225.796 235.048 226.23 235.384 226.549C235.719 226.869 236.174 227.049 236.648 227.049C237.122 227.049 237.577 226.869 237.912 226.549C238.248 226.23 238.436 225.796 238.436 225.343V209.425C238.434 209.231 238.397 209.038 238.327 208.856H306.49C306.42 209.038 306.383 209.231 306.381 209.425V225.343C306.381 225.796 306.569 226.23 306.905 226.549C307.24 226.869 307.695 227.049 308.169 227.049C308.643 227.049 309.098 226.869 309.433 226.549C309.769 226.23 309.957 225.796 309.957 225.343V209.425C309.955 209.231 309.918 209.038 309.847 208.856H319.493C319.806 208.857 320.117 208.798 320.406 208.684C320.696 208.57 320.959 208.403 321.181 208.191C321.403 207.98 321.579 207.729 321.699 207.453C321.819 207.177 321.88 206.881 321.88 206.582C321.88 206.283 321.819 205.987 321.699 205.711C321.579 205.435 321.403 205.184 321.181 204.973C320.959 204.762 320.696 204.594 320.406 204.48C320.117 204.366 319.806 204.308 319.493 204.308H309.361V199.76H320.685C320.842 199.76 320.997 199.731 321.142 199.674C321.287 199.617 321.418 199.533 321.529 199.428C321.64 199.322 321.728 199.197 321.788 199.059C321.848 198.921 321.879 198.772 321.879 198.623C321.879 198.473 321.848 198.325 321.788 198.187C321.728 198.049 321.64 197.924 321.529 197.818C321.418 197.713 321.287 197.629 321.142 197.572C320.997 197.515 320.842 197.486 320.685 197.486H309.361V192.938H320.685ZM237.84 186.116H306.977V190.664H237.84V186.116ZM306.977 204.308H237.84V199.76H306.977V204.308ZM306.977 197.486H237.84V192.938H306.977V197.486Z" fill="#3F3D56"/>
<path d="M144.997 207.882C145.078 207.359 145.037 206.825 144.879 206.319C144.72 205.812 144.446 205.345 144.078 204.951C143.709 204.556 143.254 204.243 142.745 204.034C142.236 203.825 141.685 203.725 141.131 203.741L116.849 180.322L112.052 186.719L137.429 207.727C137.519 208.613 137.946 209.437 138.631 210.042C139.315 210.648 140.208 210.993 141.141 211.012C142.074 211.031 142.982 210.723 143.693 210.146C144.403 209.569 144.868 208.764 144.997 207.882V207.882Z" fill="#FFB8B8"/>
<path d="M131.673 196.097L127.297 200.265C127.001 200.546 126.6 200.704 126.181 200.706C125.763 200.708 125.361 200.552 125.062 200.273L108.126 184.391C107.541 183.842 107.075 183.188 106.756 182.466C106.437 181.744 106.272 180.969 106.269 180.185C106.266 179.402 106.426 178.626 106.74 177.902C107.054 177.178 107.515 176.521 108.096 175.968C108.678 175.415 109.369 174.978 110.129 174.681C110.889 174.384 111.703 174.234 112.524 174.24C113.346 174.245 114.157 174.406 114.913 174.712C115.669 175.019 116.353 175.466 116.927 176.026L131.687 193.968C131.978 194.254 132.139 194.637 132.136 195.035C132.134 195.434 131.967 195.815 131.673 196.097Z" fill="#FFDE5A"/>
<path d="M131.673 196.097L127.297 200.265C127.001 200.546 126.6 200.704 126.181 200.706C125.763 200.708 125.361 200.552 125.062 200.273L108.126 184.391C107.541 183.842 107.075 183.188 106.756 182.466C106.437 181.744 106.272 180.969 106.269 180.185C106.266 179.402 106.426 178.626 106.74 177.902C107.054 177.178 107.515 176.521 108.096 175.968C108.678 175.415 109.369 174.978 110.129 174.681C110.889 174.384 111.703 174.234 112.524 174.24C113.346 174.245 114.157 174.406 114.913 174.712C115.669 175.019 116.353 175.466 116.927 176.026L131.687 193.968C131.978 194.254 132.139 194.637 132.136 195.035C132.134 195.434 131.967 195.815 131.673 196.097Z" fill="#1283C6"/>
<path d="M111.759 163.635C116.546 163.635 120.427 159.933 120.427 155.366C120.427 150.8 116.546 147.098 111.759 147.098C106.972 147.098 103.091 150.8 103.091 155.366C103.091 159.933 106.972 163.635 111.759 163.635Z" fill="#FFB8B8"/>
<path d="M82.4705 256.186L84.6653 259.743L100.092 253.36L96.8525 248.111L82.4705 256.186Z" fill="#FFB8B8"/>
<path d="M83.1279 254.595L87.4502 261.6L87.4504 261.6C87.8121 262.186 88.0492 262.835 88.1482 263.508C88.2472 264.182 88.2062 264.868 88.0274 265.526C87.8486 266.184 87.5356 266.803 87.1062 267.346C86.6769 267.889 86.1396 268.346 85.525 268.691L85.373 268.777L78.2962 257.308L83.1279 254.595Z" fill="#2F2E41"/>
<path d="M107.9 268.999H112.227L114.285 253.08L107.9 253.08L107.9 268.999Z" fill="#FFB8B8"/>
<path d="M106.797 267.652L115.317 267.652H115.318C116.031 267.652 116.737 267.785 117.396 268.046C118.055 268.306 118.653 268.688 119.157 269.169C119.662 269.65 120.062 270.221 120.335 270.849C120.607 271.477 120.748 272.151 120.748 272.831V272.999L106.797 273L106.797 267.652Z" fill="#2F2E41"/>
<path d="M90.5056 259.355C90.2566 259.355 90.0111 259.299 89.7889 259.192C89.5667 259.085 89.3741 258.929 89.2266 258.738L85.0539 253.332C84.9266 253.167 84.8356 252.979 84.7866 252.78C84.7375 252.58 84.7314 252.373 84.7685 252.172C84.8055 251.97 84.8851 251.778 85.0024 251.606C85.1197 251.434 85.2722 251.287 85.4507 251.174L104.019 239.344L92.8152 211.243L116.774 213.129L117.581 237.277C117.657 239.476 117.104 241.654 115.983 243.576C114.861 245.499 113.212 247.095 111.213 248.192L91.2991 259.151C91.058 259.284 90.7843 259.355 90.5056 259.355Z" fill="#2F2E41"/>
<path d="M108.031 265.768C107.62 265.767 107.225 265.614 106.93 265.342C106.635 265.069 106.461 264.698 106.447 264.307L105.569 240.782L116.441 240.235L115.576 263.929C115.563 264.305 115.404 264.662 115.13 264.932C114.856 265.201 114.486 265.364 114.094 265.388L108.139 265.764C108.103 265.767 108.067 265.768 108.031 265.768Z" fill="#2F2E41"/>
<path d="M115.903 217.8C113.136 217.8 107.119 214.832 103.764 213.775C103.263 214.158 100.506 216.124 97.2879 215.764C95.3024 215.542 93.5545 214.47 92.0927 212.578C88.8646 208.399 95.3749 192.95 99.2882 178.651C100.934 172.636 104.694 166.483 111.068 167.803C113.284 168.269 115.319 169.316 116.945 170.825C118.572 172.334 119.725 174.246 120.275 176.346C121.012 179.207 120.378 182.572 119.915 185.029C119.71 185.854 119.6 186.698 119.584 187.546C119.811 189.279 117.429 216.46 116.617 217.621C116.531 217.744 116.281 217.8 115.903 217.8Z" fill="#FFDE5A"/>
<path d="M115.903 217.8C113.136 217.8 107.119 214.832 103.764 213.775C103.263 214.158 100.506 216.124 97.2879 215.764C95.3024 215.542 93.5545 214.47 92.0927 212.578C88.8646 208.399 95.3749 192.95 99.2882 178.651C100.934 172.636 104.694 166.483 111.068 167.803C113.284 168.269 115.319 169.316 116.945 170.825C118.572 172.334 119.725 174.246 120.275 176.346C121.012 179.207 120.378 182.572 119.915 185.029C119.71 185.854 119.6 186.698 119.584 187.546C119.811 189.279 117.429 216.46 116.617 217.621C116.531 217.744 116.281 217.8 115.903 217.8Z" fill="#1283C6"/>
<path d="M109.427 217.848C109.872 217.533 110.239 217.128 110.501 216.662C110.764 216.197 110.917 215.682 110.948 215.154C110.98 214.626 110.89 214.098 110.685 213.607C110.479 213.116 110.164 212.674 109.76 212.312L109.931 179.374L101.798 180.666L104.187 212.637C103.594 213.324 103.287 214.195 103.322 215.085C103.358 215.974 103.734 216.82 104.38 217.463C105.026 218.105 105.897 218.499 106.827 218.57C107.757 218.642 108.682 218.385 109.427 217.848Z" fill="#FFB8B8"/>
<path d="M111.308 200.527H102.548C102.13 200.526 101.729 200.368 101.432 200.087C101.135 199.806 100.965 199.425 100.96 199.026L100.745 176.373C100.738 175.59 100.893 174.813 101.203 174.087C101.512 173.361 101.969 172.702 102.547 172.146C103.126 171.589 103.814 171.148 104.572 170.848C105.33 170.547 106.144 170.392 106.965 170.393C107.786 170.394 108.599 170.551 109.356 170.853C110.114 171.156 110.801 171.598 111.378 172.156C111.955 172.713 112.41 173.374 112.718 174.101C113.025 174.827 113.179 175.604 113.169 176.387L112.896 199.03C112.89 199.428 112.72 199.808 112.423 200.088C112.126 200.368 111.726 200.526 111.308 200.527Z" fill="#FFDE5A"/>
<path d="M111.308 200.527H102.548C102.13 200.526 101.729 200.368 101.432 200.087C101.135 199.806 100.965 199.425 100.96 199.026L100.745 176.373C100.738 175.59 100.893 174.813 101.203 174.087C101.512 173.361 101.969 172.702 102.547 172.146C103.126 171.589 103.814 171.148 104.572 170.848C105.33 170.547 106.144 170.392 106.965 170.393C107.786 170.394 108.599 170.551 109.356 170.853C110.114 171.156 110.801 171.598 111.378 172.156C111.955 172.713 112.41 173.374 112.718 174.101C113.025 174.827 113.179 175.604 113.169 176.387L112.896 199.03C112.89 199.428 112.72 199.808 112.423 200.088C112.126 200.368 111.726 200.526 111.308 200.527Z" fill="#1283C6"/>
<path d="M109.552 163.6C107.562 163.553 105.647 162.864 104.121 161.644C102.596 160.425 101.548 158.747 101.152 156.887C100.905 155.422 101.016 153.923 101.476 152.506C101.975 150.892 102.831 149.4 103.986 148.129C105.141 146.858 106.568 145.838 108.171 145.137C109.774 144.437 111.516 144.073 113.28 144.069C115.043 144.065 116.787 144.422 118.393 145.115C119.455 145.574 120.501 146.232 120.987 147.242C121.473 148.252 121.169 149.664 120.105 150.119C119.41 150.416 118.538 150.27 117.922 150.697C117.036 151.309 117.264 152.612 117.659 153.585C118.055 154.558 118.502 155.735 117.839 156.565C117.221 157.339 115.987 157.315 115.014 157.024C114.042 156.733 113.082 156.245 112.068 156.344C110.589 156.489 109.526 157.892 109.33 159.298C109.133 160.703 109.596 162.108 110.053 163.457L109.552 163.6Z" fill="#2F2E41"/>
<path d="M142.161 207.691C147.791 206.476 154.17 210.678 154.368 216.318C154.424 217.904 153.936 219.57 152.657 220.649C152.127 221.113 151.482 221.439 150.783 221.598C150.083 221.756 149.353 221.741 148.662 221.554C146.034 220.716 145.893 217.223 147.303 215.357C149.212 212.831 152.994 212.399 155.995 212.7C159.673 213.145 163.156 214.529 166.077 216.705C171.935 220.915 175.666 227.369 178.685 233.604C181.775 240 184.023 246.737 185.376 253.661C185.546 254.53 185.702 255.402 185.844 256.276C185.884 256.405 185.975 256.512 186.098 256.577C186.221 256.641 186.365 256.657 186.5 256.62C186.633 256.58 186.744 256.492 186.811 256.376C186.878 256.259 186.896 256.123 186.86 255.994C185.624 248.439 183.342 241.074 180.072 234.092C176.911 227.335 172.926 220.325 166.586 215.816C163.442 213.506 159.689 212.071 155.743 211.669C152.418 211.388 148.481 212.059 146.413 214.817C144.782 216.993 144.947 220.61 147.471 222.126C148.169 222.504 148.954 222.71 149.756 222.725C150.557 222.741 151.351 222.565 152.063 222.214C152.828 221.854 153.501 221.339 154.037 220.706C154.572 220.073 154.957 219.336 155.164 218.547C156.06 215.415 154.699 212.027 152.366 209.788C150.176 207.68 147.2 206.487 144.089 206.468C143.34 206.475 142.594 206.56 141.864 206.721C141.2 206.864 141.497 207.834 142.161 207.69V207.691Z" fill="#CCCCCC"/>
<path d="M169.315 269.721L165.816 264.022L170.131 261.611L173.63 267.31V267.31C173.965 267.856 174.059 268.506 173.891 269.118C173.724 269.73 173.308 270.253 172.736 270.573C172.164 270.893 171.482 270.982 170.84 270.823C170.199 270.663 169.65 270.266 169.315 269.721V269.721Z" fill="#FFDE5A"/>
<path d="M157.746 257.876C159.445 257.876 160.823 256.561 160.823 254.94C160.823 253.319 159.445 252.005 157.746 252.005C156.046 252.005 154.669 253.319 154.669 254.94C154.669 256.561 156.046 257.876 157.746 257.876Z" fill="#FFDE5A"/>
<path d="M182.853 269.721L179.354 264.022L183.669 261.611L187.168 267.31C187.503 267.856 187.597 268.506 187.43 269.118C187.262 269.73 186.847 270.253 186.274 270.573C185.702 270.893 185.02 270.982 184.379 270.823C183.737 270.663 183.189 270.266 182.853 269.721V269.721Z" fill="#FFDE5A"/>
<path d="M158.33 260.853C158.332 259.2 159.022 257.614 160.247 256.445C161.473 255.276 163.135 254.618 164.869 254.616H185.568C186.301 254.617 187.003 254.895 187.521 255.389C188.039 255.884 188.331 256.554 188.332 257.253V259.499C188.329 261.512 187.49 263.442 185.998 264.865C184.506 266.288 182.483 267.088 180.373 267.091H164.869C163.135 267.089 161.473 266.431 160.247 265.262C159.022 264.092 158.332 262.507 158.33 260.853Z" fill="#3F3D56"/>
<path d="M163.104 270.455V263.851H168.104V270.455C168.104 271.088 167.84 271.694 167.371 272.142C166.903 272.589 166.267 272.84 165.604 272.84C164.941 272.84 164.305 272.589 163.836 272.142C163.367 271.694 163.104 271.088 163.104 270.455V270.455Z" fill="#3F3D56"/>
<path d="M177.613 270.455V263.851H182.613V270.455C182.613 271.088 182.35 271.694 181.881 272.142C181.412 272.589 180.776 272.84 180.113 272.84C179.45 272.84 178.814 272.589 178.345 272.142C177.876 271.694 177.613 271.088 177.613 270.455V270.455Z" fill="#3F3D56"/>
<path d="M197.957 244.327C198.468 243.721 199.211 243.333 200.021 243.249C200.832 243.166 201.644 243.392 202.28 243.879C202.916 244.366 203.323 245.074 203.412 245.847C203.501 246.62 203.265 247.396 202.755 248.003L197.697 254.01L192.899 250.334L197.957 244.327Z" fill="#FFDE5A"/>
<path d="M185.773 256.161L189.825 251.348C190.81 250.181 192.241 249.434 193.803 249.271C195.365 249.108 196.93 249.543 198.156 250.48L199.423 251.45C200.882 252.571 201.815 254.198 202.019 255.974C202.222 257.751 201.678 259.531 200.507 260.926L197.169 264.891C196.8 265.328 196.264 265.608 195.679 265.669C195.095 265.729 194.508 265.567 194.049 265.216L186.113 259.136C185.655 258.784 185.362 258.273 185.298 257.715C185.234 257.158 185.405 256.598 185.773 256.161Z" fill="#3F3D56"/>
<path d="M198.559 243.612C198.91 243.194 199.421 242.927 199.979 242.869C200.536 242.811 201.095 242.967 201.533 243.302C201.97 243.637 202.25 244.124 202.311 244.656C202.372 245.188 202.209 245.722 201.858 246.139L196.197 252.861L192.899 250.334L198.559 243.612Z" fill="#3F3D56"/>
<path d="M190.45 254.848L199.147 261.511C199.462 261.752 199.724 262.05 199.919 262.388C200.113 262.726 200.235 263.098 200.279 263.481C200.323 263.864 200.287 264.252 200.174 264.622C200.061 264.992 199.872 265.337 199.619 265.637C199.366 265.938 199.054 266.188 198.699 266.373C198.345 266.558 197.956 266.675 197.554 266.717C197.153 266.759 196.746 266.725 196.358 266.617C195.97 266.509 195.608 266.329 195.293 266.088L186.597 259.425L190.45 254.848Z" fill="#3F3D56"/>
<path d="M199.992 265.855C200.441 265.322 200.553 264.696 200.242 264.458C199.932 264.221 199.316 264.46 198.867 264.993C198.418 265.526 198.306 266.151 198.616 266.389C198.927 266.627 199.543 266.388 199.992 265.855Z" fill="#FFDE5A"/>
<path d="M277.273 178.076C280.852 178.076 283.753 175.309 283.753 171.895C283.753 168.481 280.852 165.714 277.273 165.714C273.695 165.714 270.793 168.481 270.793 171.895C270.793 175.309 273.695 178.076 277.273 178.076Z" fill="#2F2E41"/>
<path d="M261.147 224.78L258.31 224.78L256.96 214.341H261.148L261.147 224.78Z" fill="#A0616A"/>
<path d="M256.284 224.007H261.755V227.293H252.838C252.838 226.862 252.927 226.434 253.101 226.036C253.274 225.637 253.528 225.275 253.847 224.969C254.167 224.664 254.547 224.422 254.965 224.257C255.383 224.092 255.831 224.007 256.284 224.007Z" fill="#2F2E41"/>
<path d="M256.718 223.27L254.011 222.46L256 212.114L259.995 213.31L256.718 223.27Z" fill="#A0616A"/>
<path d="M252.321 221.143L257.541 222.706L256.51 225.841L248.002 223.294C248.275 222.463 248.884 221.769 249.694 221.365C250.504 220.962 251.449 220.882 252.321 221.143Z" fill="#2F2E41"/>
<path d="M257.642 219.105C257.517 219.105 257.394 219.083 257.278 219.042L255.191 218.295C254.956 218.21 254.762 218.048 254.642 217.838C254.522 217.628 254.486 217.384 254.539 217.151C255.065 214.897 256.856 207.223 257.836 203.107C259 198.225 275.967 197.318 276.689 197.282L276.748 197.279L278.657 199.567C279.347 201.682 279.128 203.331 278.007 204.469C274.736 207.791 264.971 205.73 263.807 205.469L258.617 218.465C258.541 218.653 258.407 218.815 258.233 218.929C258.059 219.044 257.853 219.105 257.642 219.105Z" fill="#2F2E41"/>
<path d="M260.65 220.65C260.526 220.65 260.403 220.629 260.286 220.587L258.199 219.84C257.965 219.756 257.77 219.594 257.65 219.384C257.531 219.174 257.494 218.929 257.548 218.696C258.073 216.442 259.864 208.769 260.845 204.653C262.008 199.771 278.976 198.863 279.697 198.827L279.757 198.824L281.665 201.112C282.355 203.227 282.136 204.876 281.016 206.015C277.745 209.336 267.98 207.275 266.815 207.014L261.625 220.01C261.55 220.199 261.416 220.36 261.242 220.475C261.068 220.589 260.861 220.65 260.65 220.65Z" fill="#2F2E41"/>
<path d="M254.611 188.857C254.688 188.955 254.756 189.058 254.816 189.166L266.23 190.314L267.873 188.165L271.597 190.106L268.37 195.321L254.371 191.916C254.018 192.244 253.568 192.463 253.082 192.541C252.596 192.62 252.096 192.556 251.649 192.357C251.202 192.158 250.829 191.834 250.58 191.428C250.33 191.022 250.217 190.553 250.253 190.084C250.29 189.615 250.476 189.168 250.786 188.802C251.095 188.435 251.515 188.168 251.988 188.035C252.461 187.902 252.965 187.909 253.434 188.056C253.902 188.203 254.313 188.482 254.611 188.857Z" fill="#A0616A"/>
<path d="M281.136 201.988C280.97 201.987 280.808 201.95 280.661 201.877C278.379 200.77 273.934 198.853 269.813 198.452C269.672 198.439 269.536 198.398 269.412 198.331C269.289 198.265 269.181 198.174 269.097 198.066C269.011 197.956 268.949 197.831 268.916 197.697C268.883 197.564 268.879 197.426 268.904 197.291C269.276 195.327 270.129 190.327 270.019 186.319C269.987 185.087 270.395 183.881 271.176 182.899C271.958 181.917 273.066 181.219 274.319 180.918C275.074 180.728 275.84 180.584 276.613 180.486C277.502 180.379 278.406 180.471 279.25 180.757C280.095 181.042 280.858 181.512 281.478 182.13C282.098 182.747 282.558 183.494 282.821 184.311C283.083 185.128 283.142 185.993 282.991 186.835C282.256 190.989 281.516 196.789 282.16 200.838C282.189 201.02 282.165 201.206 282.091 201.375C282.017 201.545 281.895 201.691 281.739 201.798C281.564 201.921 281.353 201.987 281.136 201.988Z" fill="#CCCCCC"/>
<path d="M270.23 191.424C270.088 191.424 269.947 191.396 269.817 191.342L266.844 190.114C266.59 190.009 266.391 189.813 266.289 189.568C266.188 189.323 266.192 189.05 266.302 188.808L268.6 183.744C268.739 183.438 268.939 183.161 269.19 182.929C269.441 182.697 269.738 182.514 270.063 182.392C270.388 182.269 270.735 182.208 271.084 182.214C271.434 182.219 271.779 182.29 272.1 182.422C272.42 182.555 272.711 182.746 272.954 182.985C273.197 183.225 273.388 183.508 273.517 183.818C273.646 184.128 273.709 184.459 273.703 184.792C273.698 185.125 273.624 185.454 273.485 185.76L271.186 190.825C271.106 191.003 270.972 191.154 270.802 191.261C270.632 191.367 270.434 191.424 270.23 191.424Z" fill="#CCCCCC"/>
<path d="M277.037 178.763C280.176 178.763 282.721 176.336 282.721 173.341C282.721 170.347 280.176 167.919 277.037 167.919C273.897 167.919 271.352 170.347 271.352 173.341C271.352 176.336 273.897 178.763 277.037 178.763Z" fill="#A0616A"/>
<path d="M271.25 170.677C273.942 172.245 276.978 173.199 280.12 173.465L279.185 172.397C279.866 172.637 280.582 172.772 281.307 172.799C281.67 172.809 282.031 172.737 282.36 172.591C282.689 172.444 282.977 172.225 283.202 171.953C283.385 171.67 283.494 171.349 283.519 171.017C283.545 170.685 283.485 170.353 283.347 170.048C283.062 169.439 282.618 168.91 282.058 168.511C281.066 167.763 279.895 167.26 278.649 167.047C277.404 166.835 276.123 166.92 274.92 167.294C274.095 167.53 273.356 167.982 272.788 168.599C272.249 169.233 271.212 169.798 271.488 170.571L271.25 170.677Z" fill="#2F2E41"/>
<path d="M277.992 166.302C276.2 164.568 274.03 163.23 271.637 162.382C270.117 161.772 268.451 161.575 266.822 161.811C265.216 162.12 263.697 163.18 263.248 164.683C262.882 165.912 263.26 167.236 263.829 168.393C264.398 169.55 265.157 170.623 265.617 171.823C266.086 173.048 266.227 174.365 266.027 175.655C265.827 176.945 265.293 178.167 264.473 179.21C263.652 180.253 262.572 181.084 261.329 181.628C260.086 182.171 258.721 182.41 257.357 182.323C258.935 182.525 260.39 183.232 261.933 183.609C263.475 183.985 265.296 183.96 266.442 182.906C267.655 181.79 267.68 179.977 267.621 178.371L267.359 171.208C267.315 169.991 267.277 168.734 267.737 167.598C268.198 166.461 269.292 165.466 270.569 165.477C271.537 165.485 272.393 166.044 273.17 166.595C273.946 167.147 274.768 167.736 275.732 167.818C276.696 167.9 277.797 167.219 277.725 166.298" fill="#2F2E41"/>
<path d="M267.48 200.595C267.104 200.595 266.732 200.515 266.391 200.361C266.051 200.207 265.751 199.983 265.512 199.705C265.274 199.427 265.103 199.102 265.012 198.753C264.921 198.404 264.912 198.041 264.986 197.688C265.06 197.336 265.215 197.004 265.44 196.716C265.665 196.428 265.954 196.19 266.286 196.022C266.619 195.853 266.986 195.756 267.363 195.739C267.739 195.722 268.114 195.785 268.462 195.923H268.462C268.567 195.965 268.668 196.014 268.765 196.07L279.12 191.636L279.411 188.957L283.874 188.843L283.844 193.303C283.839 193.819 283.659 194.32 283.331 194.732C283.003 195.143 282.545 195.443 282.025 195.586L269.916 198.874C269.893 198.95 269.865 199.025 269.833 199.098C269.639 199.541 269.312 199.919 268.893 200.186C268.475 200.452 267.983 200.594 267.48 200.595V200.595Z" fill="#A0616A"/>
<path d="M283.496 191.029C283.369 191.09 283.23 191.126 283.088 191.134L279.854 191.324C279.579 191.34 279.308 191.251 279.101 191.076C278.894 190.902 278.768 190.656 278.751 190.393L278.396 184.885C278.374 184.552 278.421 184.218 278.535 183.903C278.648 183.587 278.826 183.296 279.057 183.046C279.289 182.796 279.57 182.591 279.884 182.445C280.198 182.299 280.54 182.213 280.889 182.192C281.238 182.172 281.588 182.217 281.918 182.326C282.249 182.434 282.554 182.604 282.816 182.825C283.078 183.046 283.292 183.314 283.445 183.614C283.598 183.914 283.688 184.24 283.709 184.573L284.064 190.082C284.076 190.275 284.029 190.468 283.928 190.636C283.827 190.804 283.677 190.941 283.496 191.029H283.496Z" fill="#CCCCCC"/>
<path d="M258.185 201.152H276.467C276.915 201.152 277.277 200.806 277.277 200.379C277.277 199.953 276.915 199.607 276.467 199.607H258.185C257.737 199.607 257.375 199.953 257.375 200.379C257.375 200.806 257.737 201.152 258.185 201.152Z" fill="#3F3D56"/>
<path d="M250.201 199.717V188.9C250.201 188.52 250.36 188.155 250.642 187.886C250.924 187.617 251.306 187.466 251.705 187.465H272.302C272.701 187.466 273.083 187.617 273.365 187.886C273.647 188.155 273.806 188.52 273.806 188.9V199.717C273.806 200.098 273.647 200.462 273.365 200.731C273.083 201 272.701 201.152 272.302 201.152H251.705C251.306 201.152 250.924 201 250.642 200.731C250.36 200.462 250.201 200.098 250.201 199.717Z" fill="#3F3D56"/>
<path d="M262.003 195.633C262.77 195.633 263.392 195.04 263.392 194.309C263.392 193.577 262.77 192.984 262.003 192.984C261.236 192.984 260.615 193.577 260.615 194.309C260.615 195.04 261.236 195.633 262.003 195.633Z" fill="white"/>
<path d="M112.727 169.309H107.716C107.233 169.309 106.769 169.125 106.428 168.799C106.086 168.473 105.894 168.031 105.894 167.57C105.894 167.109 106.086 166.667 106.428 166.341C106.769 166.015 107.233 165.832 107.716 165.832H112.727C113.211 165.832 113.674 166.015 114.016 166.341C114.357 166.667 114.549 167.109 114.549 167.57C114.549 168.031 114.357 168.473 114.016 168.799C113.674 169.125 113.211 169.309 112.727 169.309Z" fill="#FFDE5A"/>
<path d="M112.727 169.309H107.716C107.233 169.309 106.769 169.125 106.428 168.799C106.086 168.473 105.894 168.031 105.894 167.57C105.894 167.109 106.086 166.667 106.428 166.341C106.769 166.015 107.233 165.832 107.716 165.832H112.727C113.211 165.832 113.674 166.015 114.016 166.341C114.357 166.667 114.549 167.109 114.549 167.57C114.549 168.031 114.357 168.473 114.016 168.799C113.674 169.125 113.211 169.309 112.727 169.309Z" fill="#1283C6"/>
</g>
<defs>
<clipPath id="clip0_54_7">
<rect width="348" height="273" fill="white"/>
</clipPath>
</defs>
</svg>
